<svg xmlns="http://www.w3.org/2000/svg" xmlns:xlink="http://www.w3.org/1999/xlink" contentStyleType="text/css" data-diagram-type="CLASS" height="768px" preserveAspectRatio="none" style="width:926px;height:768px;background:#FFFFFF;" version="1.1" viewBox="0 0 926 768" width="926px" zoomAndPan="magnify"><defs/><g><!--class Employee--><g class="entity" data-entity="Employee" data-source-line="2" data-uid="ent0002" id="entity_Employee"><rect fill="#F1F1F1" height="194.6719" rx="2.5" ry="2.5" style="stroke:#181818;stroke-width:0.5;" width="176.8691" x="337.72" y="246.08"/><ellipse cx="387.2361" cy="262.08" fill="#ADD1B2" rx="11" ry="11" style="stroke:#181818;stroke-width:1;"/><path d="M390.2049,267.7206 Q389.6267,268.0175 388.9861,268.1581 Q388.3455,268.3144 387.6424,268.3144 Q385.1424,268.3144 383.8142,266.6737 Q382.5017,265.0175 382.5017,261.8925 Q382.5017,258.7675 383.8142,257.1112 Q385.1424,255.455 387.6424,255.455 Q388.3455,255.455 388.9861,255.6112 Q389.6424,255.7675 390.2049,256.0644 L390.2049,258.7831 Q389.5799,258.205 388.9861,257.9394 Q388.3924,257.6581 387.7674,257.6581 Q386.4236,257.6581 385.7361,258.7362 Q385.0486,259.7987 385.0486,261.8925 Q385.0486,263.9862 385.7361,265.0644 Q386.4236,266.1269 387.7674,266.1269 Q388.3924,266.1269 388.9861,265.8612 Q389.5799,265.58 390.2049,265.0019 L390.2049,267.7206 Z " fill="#000000"/><text fill="#000000" font-family="sans-serif" font-size="14" lengthAdjust="spacing" textLength="69.3369" x="407.7361" y="266.9267">Employee</text><line style="stroke:#181818;stroke-width:0.5;" x1="338.72" x2="513.5891" y1="278.08" y2="278.08"/><rect fill="none" height="6" style="stroke:#C82930;stroke-width:1;" width="6" x="345.72" y="288.7284"/><text fill="#000000" font-family="sans-serif" font-size="14" lengthAdjust="spacing" textLength="71.333" x="357.72" y="295.0751">empid: int</text><rect fill="none" height="6" style="stroke:#C82930;stroke-width:1;" width="6" x="345.72" y="305.0253"/><text fill="#000000" font-family="sans-serif" font-size="14" lengthAdjust="spacing" textLength="98.7041" x="357.72" y="311.372">Fname: String</text><rect fill="none" height="6" style="stroke:#C82930;stroke-width:1;" width="6" x="345.72" y="321.3222"/><text fill="#000000" font-family="sans-serif" font-size="14" lengthAdjust="spacing" textLength="98.4512" x="357.72" y="327.6689">Lname: String</text><rect fill="none" height="6" style="stroke:#C82930;stroke-width:1;" width="6" x="345.72" y="337.6191"/><text fill="#000000" font-family="sans-serif" font-size="14" lengthAdjust="spacing" textLength="89.5576" x="357.72" y="343.9657">email: String</text><rect fill="none" height="6" style="stroke:#C82930;stroke-width:1;" width="6" x="345.72" y="353.9159"/><text fill="#000000" font-family="sans-serif" font-size="14" lengthAdjust="spacing" textLength="104.877" x="357.72" y="360.2626">HireDate: Date</text><rect fill="none" height="6" style="stroke:#C82930;stroke-width:1;" width="6" x="345.72" y="370.2128"/><text fill="#000000" font-family="sans-serif" font-size="14" lengthAdjust="spacing" textLength="108.3359" x="357.72" y="376.5595">Salary: decimal</text><rect fill="none" height="6" style="stroke:#C82930;stroke-width:1;" width="6" x="345.72" y="386.5097"/><text fill="#000000" font-family="sans-serif" font-size="14" lengthAdjust="spacing" textLength="79.1943" x="357.72" y="392.8564">SSN: String</text><line style="stroke:#181818;stroke-width:0.5;" x1="338.72" x2="513.5891" y1="400.1581" y2="400.1581"/><ellipse cx="348.72" cy="413.8066" fill="#84BE84" rx="3" ry="3" style="stroke:#038048;stroke-width:1;"/><text fill="#000000" font-family="sans-serif" font-size="14" lengthAdjust="spacing" textLength="150.8691" x="357.72" y="417.1532">getFullName(): String</text><ellipse cx="348.72" cy="430.1034" fill="#84BE84" rx="3" ry="3" style="stroke:#038048;stroke-width:1;"/><text fill="#000000" font-family="sans-serif" font-size="14" lengthAdjust="spacing" textLength="111.3574" x="357.72" y="433.4501">getInfo(): String</text></g><!--class Division--><g class="entity" data-entity="Division" data-source-line="14" data-uid="ent0003" id="entity_Division"><rect fill="#F1F1F1" height="194.6719" rx="2.5" ry="2.5" style="stroke:#181818;stroke-width:0.5;" width="170.3408" x="549.98" y="246.08"/><ellipse cx="603.167" cy="262.08" fill="#ADD1B2" rx="11" ry="11" style="stroke:#181818;stroke-width:1;"/><path d="M606.1358,267.7206 Q605.5576,268.0175 604.917,268.1581 Q604.2764,268.3144 603.5733,268.3144 Q601.0733,268.3144 599.7451,266.6737 Q598.4326,265.0175 598.4326,261.8925 Q598.4326,258.7675 599.7451,257.1112 Q601.0733,255.455 603.5733,255.455 Q604.2764,255.455 604.917,255.6112 Q605.5733,255.7675 606.1358,256.0644 L606.1358,258.7831 Q605.5108,258.205 604.917,257.9394 Q604.3233,257.6581 603.6983,257.6581 Q602.3545,257.6581 601.667,258.7362 Q600.9795,259.7987 600.9795,261.8925 Q600.9795,263.9862 601.667,265.0644 Q602.3545,266.1269 603.6983,266.1269 Q604.3233,266.1269 604.917,265.8612 Q605.5108,265.58 606.1358,265.0019 L606.1358,267.7206 Z " fill="#000000"/><text fill="#000000" font-family="sans-serif" font-size="14" lengthAdjust="spacing" textLength="55.4668" x="623.667" y="266.9267">Division</text><line style="stroke:#181818;stroke-width:0.5;" x1="550.98" x2="719.3208" y1="278.08" y2="278.08"/><rect fill="none" height="6" style="stroke:#C82930;stroke-width:1;" width="6" x="557.98" y="288.7284"/><text fill="#000000" font-family="sans-serif" font-size="14" lengthAdjust="spacing" textLength="42.3281" x="569.98" y="295.0751">ID: int</text><rect fill="none" height="6" style="stroke:#C82930;stroke-width:1;" width="6" x="557.98" y="305.0253"/><text fill="#000000" font-family="sans-serif" font-size="14" lengthAdjust="spacing" textLength="92.251" x="569.98" y="311.372">Name: String</text><rect fill="none" height="6" style="stroke:#C82930;stroke-width:1;" width="6" x="557.98" y="321.3222"/><text fill="#000000" font-family="sans-serif" font-size="14" lengthAdjust="spacing" textLength="76.3096" x="569.98" y="327.6689">city: String</text><rect fill="none" height="6" style="stroke:#C82930;stroke-width:1;" width="6" x="557.98" y="337.6191"/><text fill="#000000" font-family="sans-serif" font-size="14" lengthAdjust="spacing" textLength="144.3408" x="569.98" y="343.9657">addressLine1: String</text><rect fill="none" height="6" style="stroke:#C82930;stroke-width:1;" width="6" x="557.98" y="353.9159"/><text fill="#000000" font-family="sans-serif" font-size="14" lengthAdjust="spacing" textLength="144.3408" x="569.98" y="360.2626">addressLine2: String</text><rect fill="none" height="6" style="stroke:#C82930;stroke-width:1;" width="6" x="557.98" y="370.2128"/><text fill="#000000" font-family="sans-serif" font-size="14" lengthAdjust="spacing" textLength="86.4131" x="569.98" y="376.5595">state: String</text><rect fill="none" height="6" style="stroke:#C82930;stroke-width:1;" width="6" x="557.98" y="386.5097"/><text fill="#000000" font-family="sans-serif" font-size="14" lengthAdjust="spacing" textLength="104.4873" x="569.98" y="392.8564">country: String</text><rect fill="none" height="6" style="stroke:#C82930;stroke-width:1;" width="6" x="557.98" y="402.8066"/><text fill="#000000" font-family="sans-serif" font-size="14" lengthAdjust="spacing" textLength="129.4932" x="569.98" y="409.1532">postalCode: String</text><line style="stroke:#181818;stroke-width:0.5;" x1="550.98" x2="719.3208" y1="416.455" y2="416.455"/><ellipse cx="560.98" cy="430.1034" fill="#84BE84" rx="3" ry="3" style="stroke:#038048;stroke-width:1;"/><text fill="#000000" font-family="sans-serif" font-size="14" lengthAdjust="spacing" textLength="133.3965" x="569.98" y="433.4501">getDetails(): String</text></g><!--class JobTitle--><g class="entity" data-entity="JobTitle" data-source-line="26" data-uid="ent0004" id="entity_JobTitle"><rect fill="#F1F1F1" height="96.8906" rx="2.5" ry="2.5" style="stroke:#181818;stroke-width:0.5;" width="141.2949" x="161.51" y="294.97"/><ellipse cx="202.2861" cy="310.97" fill="#ADD1B2" rx="11" ry="11" style="stroke:#181818;stroke-width:1;"/><path d="M205.2549,316.6106 Q204.6767,316.9075 204.0361,317.0481 Q203.3955,317.2044 202.6924,317.2044 Q200.1924,317.2044 198.8642,315.5637 Q197.5517,313.9075 197.5517,310.7825 Q197.5517,307.6575 198.8642,306.0012 Q200.1924,304.345 202.6924,304.345 Q203.3955,304.345 204.0361,304.5012 Q204.6924,304.6575 205.2549,304.9544 L205.2549,307.6731 Q204.6299,307.095 204.0361,306.8294 Q203.4424,306.5481 202.8174,306.5481 Q201.4736,306.5481 200.7861,307.6262 Q200.0986,308.6887 200.0986,310.7825 Q200.0986,312.8762 200.7861,313.9544 Q201.4736,315.0169 202.8174,315.0169 Q203.4424,315.0169 204.0361,314.7512 Q204.6299,314.47 205.2549,313.8919 L205.2549,316.6106 Z " fill="#000000"/><text fill="#000000" font-family="sans-serif" font-size="14" lengthAdjust="spacing" textLength="52.0146" x="222.0142" y="315.8167">JobTitle</text><line style="stroke:#181818;stroke-width:0.5;" x1="162.51" x2="301.8049" y1="326.97" y2="326.97"/><rect fill="none" height="6" style="stroke:#C82930;stroke-width:1;" width="6" x="169.51" y="337.6184"/><text fill="#000000" font-family="sans-serif" font-size="14" lengthAdjust="spacing" textLength="102.9082" x="181.51" y="343.9651">job_title_id: int</text><rect fill="none" height="6" style="stroke:#C82930;stroke-width:1;" width="6" x="169.51" y="353.9153"/><text fill="#000000" font-family="sans-serif" font-size="14" lengthAdjust="spacing" textLength="106.6611" x="181.51" y="360.262">job_title: String</text><line style="stroke:#181818;stroke-width:0.5;" x1="162.51" x2="301.8049" y1="367.5637" y2="367.5637"/><ellipse cx="172.51" cy="381.2122" fill="#84BE84" rx="3" ry="3" style="stroke:#038048;stroke-width:1;"/><text fill="#000000" font-family="sans-serif" font-size="14" lengthAdjust="spacing" textLength="115.2949" x="181.51" y="384.5589">getTitle(): String</text></g><!--class Payroll--><g class="entity" data-entity="Payroll" data-source-line="32" data-uid="ent0005" id="entity_Payroll"><rect fill="#F1F1F1" height="243.5625" rx="2.5" ry="2.5" style="stroke:#181818;stroke-width:0.5;" width="238.3105" x="7" y="517.75"/><ellipse cx="98.2017" cy="533.75" fill="#ADD1B2" rx="11" ry="11" style="stroke:#181818;stroke-width:1;"/><path d="M101.1704,539.3906 Q100.5923,539.6875 99.9517,539.8281 Q99.311,539.9844 98.6079,539.9844 Q96.1079,539.9844 94.7798,538.3438 Q93.4673,536.6875 93.4673,533.5625 Q93.4673,530.4375 94.7798,528.7813 Q96.1079,527.125 98.6079,527.125 Q99.311,527.125 99.9517,527.2813 Q100.6079,527.4375 101.1704,527.7344 L101.1704,530.4531 Q100.5454,529.875 99.9517,529.6094 Q99.3579,529.3281 98.7329,529.3281 Q97.3892,529.3281 96.7017,530.4063 Q96.0142,531.4688 96.0142,533.5625 Q96.0142,535.6563 96.7017,536.7344 Q97.3892,537.7969 98.7329,537.7969 Q99.3579,537.7969 99.9517,537.5313 Q100.5454,537.25 101.1704,536.6719 L101.1704,539.3906 Z " fill="#000000"/><text fill="#000000" font-family="sans-serif" font-size="14" lengthAdjust="spacing" textLength="47.4072" x="118.7017" y="538.5967">Payroll</text><line style="stroke:#181818;stroke-width:0.5;" x1="8" x2="244.3105" y1="549.75" y2="549.75"/><rect fill="none" height="6" style="stroke:#C82930;stroke-width:1;" width="6" x="15" y="560.3984"/><text fill="#000000" font-family="sans-serif" font-size="14" lengthAdjust="spacing" textLength="68.0791" x="27" y="566.7451">payID: int</text><rect fill="none" height="6" style="stroke:#C82930;stroke-width:1;" width="6" x="15" y="576.6953"/><text fill="#000000" font-family="sans-serif" font-size="14" lengthAdjust="spacing" textLength="106.9482" x="27" y="583.042">pay_date: Date</text><rect fill="none" height="6" style="stroke:#C82930;stroke-width:1;" width="6" x="15" y="592.9922"/><text fill="#000000" font-family="sans-serif" font-size="14" lengthAdjust="spacing" textLength="125.125" x="27" y="599.3389">earnings: decimal</text><rect fill="none" height="6" style="stroke:#C82930;stroke-width:1;" width="6" x="15" y="609.2891"/><text fill="#000000" font-family="sans-serif" font-size="14" lengthAdjust="spacing" textLength="116.1426" x="27" y="615.6357">fed_tax: decimal</text><rect fill="none" height="6" style="stroke:#C82930;stroke-width:1;" width="6" x="15" y="625.5859"/><text fill="#000000" font-family="sans-serif" font-size="14" lengthAdjust="spacing" textLength="124.9268" x="27" y="631.9326">fed_med: decimal</text><rect fill="none" height="6" style="stroke:#C82930;stroke-width:1;" width="6" x="15" y="641.8828"/><text fill="#000000" font-family="sans-serif" font-size="14" lengthAdjust="spacing" textLength="111.5625" x="27" y="648.2295">fed_SS: decimal</text><rect fill="none" height="6" style="stroke:#C82930;stroke-width:1;" width="6" x="15" y="658.1797"/><text fill="#000000" font-family="sans-serif" font-size="14" lengthAdjust="spacing" textLength="129.1787" x="27" y="664.5264">state_tax: decimal</text><rect fill="none" height="6" style="stroke:#C82930;stroke-width:1;" width="6" x="15" y="674.4766"/><text fill="#000000" font-family="sans-serif" font-size="14" lengthAdjust="spacing" textLength="144.3066" x="27" y="680.8232">retire_401k: decimal</text><rect fill="none" height="6" style="stroke:#C82930;stroke-width:1;" width="6" x="15" y="690.7734"/><text fill="#000000" font-family="sans-serif" font-size="14" lengthAdjust="spacing" textLength="146.3232" x="27" y="697.1201">health_care: decimal</text><rect fill="none" height="6" style="stroke:#C82930;stroke-width:1;" width="6" x="15" y="707.0703"/><text fill="#000000" font-family="sans-serif" font-size="14" lengthAdjust="spacing" textLength="71.333" x="27" y="713.417">empid: int</text><line style="stroke:#181818;stroke-width:0.5;" x1="8" x2="244.3105" y1="720.7188" y2="720.7188"/><ellipse cx="18" cy="734.3672" fill="#84BE84" rx="3" ry="3" style="stroke:#038048;stroke-width:1;"/><text fill="#000000" font-family="sans-serif" font-size="14" lengthAdjust="spacing" textLength="148.1553" x="27" y="737.7139">getNetPay(): decimal</text><ellipse cx="18" cy="750.6641" fill="#84BE84" rx="3" ry="3" style="stroke:#038048;stroke-width:1;"/><text fill="#000000" font-family="sans-serif" font-size="14" lengthAdjust="spacing" textLength="212.3105" x="27" y="754.0107">getTotalDeductions(): decimal</text></g><!--class EmployeeDivision--><g class="entity" data-entity="EmployeeDivision" data-source-line="47" data-uid="ent0006" id="entity_EmployeeDivision"><rect fill="#F1F1F1" height="80.5938" rx="2.5" ry="2.5" style="stroke:#181818;stroke-width:0.5;" width="156.8037" x="511.75" y="599.23"/><ellipse cx="526.75" cy="615.23" fill="#ADD1B2" rx="11" ry="11" style="stroke:#181818;stroke-width:1;"/><path d="M529.7188,620.8706 Q529.1406,621.1675 528.5,621.3081 Q527.8594,621.4644 527.1563,621.4644 Q524.6563,621.4644 523.3281,619.8237 Q522.0156,618.1675 522.0156,615.0425 Q522.0156,611.9175 523.3281,610.2612 Q524.6563,608.605 527.1563,608.605 Q527.8594,608.605 528.5,608.7612 Q529.1563,608.9175 529.7188,609.2144 L529.7188,611.9331 Q529.0938,611.355 528.5,611.0894 Q527.9063,610.8081 527.2813,610.8081 Q525.9375,610.8081 525.25,611.8862 Q524.5625,612.9487 524.5625,615.0425 Q524.5625,617.1362 525.25,618.2144 Q525.9375,619.2769 527.2813,619.2769 Q527.9063,619.2769 528.5,619.0112 Q529.0938,618.73 529.7188,618.1519 L529.7188,620.8706 Z " fill="#000000"/><text fill="#000000" font-family="sans-serif" font-size="14" lengthAdjust="spacing" textLength="124.8037" x="540.75" y="620.0767">EmployeeDivision</text><line style="stroke:#181818;stroke-width:0.5;" x1="512.75" x2="667.5537" y1="631.23" y2="631.23"/><rect fill="none" height="6" style="stroke:#C82930;stroke-width:1;" width="6" x="519.75" y="641.8784"/><text fill="#000000" font-family="sans-serif" font-size="14" lengthAdjust="spacing" textLength="71.333" x="531.75" y="648.2251">empid: int</text><rect fill="none" height="6" style="stroke:#C82930;stroke-width:1;" width="6" x="519.75" y="658.1753"/><text fill="#000000" font-family="sans-serif" font-size="14" lengthAdjust="spacing" textLength="70.3896" x="531.75" y="664.522">div_ID: int</text><line style="stroke:#181818;stroke-width:0.5;" x1="512.75" x2="667.5537" y1="671.8237" y2="671.8237"/></g><!--class EmployeeJobTitle--><g class="entity" data-entity="EmployeeJobTitle" data-source-line="52" data-uid="ent0007" id="entity_EmployeeJobTitle"><rect fill="#F1F1F1" height="80.5938" rx="2.5" ry="2.5" style="stroke:#181818;stroke-width:0.5;" width="153.3516" x="309.48" y="599.23"/><ellipse cx="324.48" cy="615.23" fill="#ADD1B2" rx="11" ry="11" style="stroke:#181818;stroke-width:1;"/><path d="M327.4488,620.8706 Q326.8706,621.1675 326.23,621.3081 Q325.5894,621.4644 324.8863,621.4644 Q322.3863,621.4644 321.0581,619.8237 Q319.7456,618.1675 319.7456,615.0425 Q319.7456,611.9175 321.0581,610.2612 Q322.3863,608.605 324.8863,608.605 Q325.5894,608.605 326.23,608.7612 Q326.8863,608.9175 327.4488,609.2144 L327.4488,611.9331 Q326.8238,611.355 326.23,611.0894 Q325.6363,610.8081 325.0113,610.8081 Q323.6675,610.8081 322.98,611.8862 Q322.2925,612.9487 322.2925,615.0425 Q322.2925,617.1362 322.98,618.2144 Q323.6675,619.2769 325.0113,619.2769 Q325.6363,619.2769 326.23,619.0112 Q326.8238,618.73 327.4488,618.1519 L327.4488,620.8706 Z " fill="#000000"/><text fill="#000000" font-family="sans-serif" font-size="14" lengthAdjust="spacing" textLength="121.3516" x="338.48" y="620.0767">EmployeeJobTitle</text><line style="stroke:#181818;stroke-width:0.5;" x1="310.48" x2="461.8316" y1="631.23" y2="631.23"/><rect fill="none" height="6" style="stroke:#C82930;stroke-width:1;" width="6" x="317.48" y="641.8784"/><text fill="#000000" font-family="sans-serif" font-size="14" lengthAdjust="spacing" textLength="71.333" x="329.48" y="648.2251">empid: int</text><rect fill="none" height="6" style="stroke:#C82930;stroke-width:1;" width="6" x="317.48" y="658.1753"/><text fill="#000000" font-family="sans-serif" font-size="14" lengthAdjust="spacing" textLength="102.9082" x="329.48" y="664.522">job_title_id: int</text><line style="stroke:#181818;stroke-width:0.5;" x1="310.48" x2="461.8316" y1="671.8237" y2="671.8237"/></g><!--class EmployeeService--><g class="entity" data-entity="EmployeeService" data-source-line="58" data-uid="ent0008" id="entity_EmployeeService"><rect fill="#F1F1F1" height="145.7813" rx="2.5" ry="2.5" style="stroke:#181818;stroke-width:0.5;" width="444.8037" x="474.75" y="15.15"/><ellipse cx="632.3628" cy="31.15" fill="#ADD1B2" rx="11" ry="11" style="stroke:#181818;stroke-width:1;"/><path d="M635.3315,36.7906 Q634.7534,37.0875 634.1128,37.2281 Q633.4722,37.3844 632.769,37.3844 Q630.269,37.3844 628.9409,35.7437 Q627.6284,34.0875 627.6284,30.9625 Q627.6284,27.8375 628.9409,26.1812 Q630.269,24.525 632.769,24.525 Q633.4722,24.525 634.1128,24.6812 Q634.769,24.8375 635.3315,25.1344 L635.3315,27.8531 Q634.7065,27.275 634.1128,27.0094 Q633.519,26.7281 632.894,26.7281 Q631.5503,26.7281 630.8628,27.8062 Q630.1753,28.8687 630.1753,30.9625 Q630.1753,33.0562 630.8628,34.1344 Q631.5503,35.1969 632.894,35.1969 Q633.519,35.1969 634.1128,34.9312 Q634.7065,34.65 635.3315,34.0719 L635.3315,36.7906 Z " fill="#000000"/><text fill="#000000" font-family="sans-serif" font-size="14" lengthAdjust="spacing" textLength="121.0781" x="652.8628" y="35.9967">EmployeeService</text><line style="stroke:#181818;stroke-width:0.5;" x1="475.75" x2="918.5537" y1="47.15" y2="47.15"/><rect fill="none" height="6" style="stroke:#C82930;stroke-width:1;" width="6" x="482.75" y="57.7984"/><text fill="#000000" font-family="sans-serif" font-size="14" lengthAdjust="spacing" textLength="202.8359" x="494.75" y="64.1451">employees: List&lt;Employee&gt;</text><line style="stroke:#181818;stroke-width:0.5;" x1="475.75" x2="918.5537" y1="71.4469" y2="71.4469"/><ellipse cx="485.75" cy="85.0953" fill="#84BE84" rx="3" ry="3" style="stroke:#038048;stroke-width:1;"/><text fill="#000000" font-family="sans-serif" font-size="14" lengthAdjust="spacing" textLength="311.8076" x="494.75" y="88.442">search(term: String, type: String): Employee</text><ellipse cx="485.75" cy="101.3922" fill="#84BE84" rx="3" ry="3" style="stroke:#038048;stroke-width:1;"/><text fill="#000000" font-family="sans-serif" font-size="14" lengthAdjust="spacing" textLength="275.8711" x="494.75" y="104.7389">update(empid: int, data: Map): boolean</text><ellipse cx="485.75" cy="117.6891" fill="#84BE84" rx="3" ry="3" style="stroke:#038048;stroke-width:1;"/><text fill="#000000" font-family="sans-serif" font-size="14" lengthAdjust="spacing" textLength="130.6621" x="494.75" y="121.0357">addSSN(): boolean</text><ellipse cx="485.75" cy="133.9859" fill="#84BE84" rx="3" ry="3" style="stroke:#038048;stroke-width:1;"/><text fill="#000000" font-family="sans-serif" font-size="14" lengthAdjust="spacing" textLength="418.8037" x="494.75" y="137.3326">applyIncrease(pct: double, min: decimal, max: decimal): int</text><ellipse cx="485.75" cy="150.2828" fill="#84BE84" rx="3" ry="3" style="stroke:#038048;stroke-width:1;"/><text fill="#000000" font-family="sans-serif" font-size="14" lengthAdjust="spacing" textLength="219.0713" x="494.75" y="153.6295">getPayHistory(empid: int): Map</text></g><!--class ReportGenerator--><g class="entity" data-entity="ReportGenerator" data-source-line="68" data-uid="ent0009" id="entity_ReportGenerator"><rect fill="#F1F1F1" height="162.0781" rx="2.5" ry="2.5" style="stroke:#181818;stroke-width:0.5;" width="414.4111" x="24.95" y="7"/><ellipse cx="168.8396" cy="23" fill="#ADD1B2" rx="11" ry="11" style="stroke:#181818;stroke-width:1;"/><path d="M171.8084,28.6406 Q171.2303,28.9375 170.5896,29.0781 Q169.949,29.2344 169.2459,29.2344 Q166.7459,29.2344 165.4178,27.5938 Q164.1053,25.9375 164.1053,22.8125 Q164.1053,19.6875 165.4178,18.0313 Q166.7459,16.375 169.2459,16.375 Q169.949,16.375 170.5896,16.5313 Q171.2459,16.6875 171.8084,16.9844 L171.8084,19.7031 Q171.1834,19.125 170.5896,18.8594 Q169.9959,18.5781 169.3709,18.5781 Q168.0271,18.5781 167.3396,19.6563 Q166.6521,20.7188 166.6521,22.8125 Q166.6521,24.9063 167.3396,25.9844 Q168.0271,27.0469 169.3709,27.0469 Q169.9959,27.0469 170.5896,26.7813 Q171.1834,26.5 171.8084,25.9219 L171.8084,28.6406 Z " fill="#000000"/><text fill="#000000" font-family="sans-serif" font-size="14" lengthAdjust="spacing" textLength="118.1318" x="189.3396" y="27.8467">ReportGenerator</text><line style="stroke:#181818;stroke-width:0.5;" x1="25.95" x2="438.3611" y1="39" y2="39"/><rect fill="none" height="6" style="stroke:#C82930;stroke-width:1;" width="6" x="32.95" y="49.6484"/><text fill="#000000" font-family="sans-serif" font-size="14" lengthAdjust="spacing" textLength="202.8359" x="44.95" y="55.9951">employees: List&lt;Employee&gt;</text><rect fill="none" height="6" style="stroke:#C82930;stroke-width:1;" width="6" x="32.95" y="65.9453"/><text fill="#000000" font-family="sans-serif" font-size="14" lengthAdjust="spacing" textLength="159.6533" x="44.95" y="72.292">payrolls: List&lt;Payroll&gt;</text><rect fill="none" height="6" style="stroke:#C82930;stroke-width:1;" width="6" x="32.95" y="82.2422"/><text fill="#000000" font-family="sans-serif" font-size="14" lengthAdjust="spacing" textLength="173.4346" x="44.95" y="88.5889">divisions: List&lt;Division&gt;</text><rect fill="none" height="6" style="stroke:#C82930;stroke-width:1;" width="6" x="32.95" y="98.5391"/><text fill="#000000" font-family="sans-serif" font-size="14" lengthAdjust="spacing" textLength="168.1846" x="44.95" y="104.8857">jobTitles: List&lt;JobTitle&gt;</text><line style="stroke:#181818;stroke-width:0.5;" x1="25.95" x2="438.3611" y1="112.1875" y2="112.1875"/><ellipse cx="35.95" cy="125.8359" fill="#84BE84" rx="3" ry="3" style="stroke:#038048;stroke-width:1;"/><text fill="#000000" font-family="sans-serif" font-size="14" lengthAdjust="spacing" textLength="338.707" x="44.95" y="129.1826">ReportGenerator_PayHistory(empid: int): Report</text><ellipse cx="35.95" cy="142.1328" fill="#84BE84" rx="3" ry="3" style="stroke:#038048;stroke-width:1;"/><text fill="#000000" font-family="sans-serif" font-size="14" lengthAdjust="spacing" textLength="388.4111" x="44.95" y="145.4795">ReportGenerator_TitlePay(month: int, year: int): Report</text><ellipse cx="35.95" cy="158.4297" fill="#84BE84" rx="3" ry="3" style="stroke:#038048;stroke-width:1;"/><text fill="#000000" font-family="sans-serif" font-size="14" lengthAdjust="spacing" textLength="388.1377" x="44.95" y="161.7764">ReportGenerator_Division(month: int, year: int): Report</text></g><!--link Employee to Payroll--><g class="link" data-entity-1="Employee" data-entity-2="Payroll" data-source-line="79" data-uid="lnk10" id="link_Employee_Payroll"><path codeLine="79" d="M354.88,441.02 C341.61,457.16 327.42,473.33 313.16,487.75 C292.33,508.8 268.68,529.77 245.36,549.09" fill="none" id="Employee-Payroll" style="stroke:#181818;stroke-width:1;"/><text fill="#000000" font-family="sans-serif" font-size="13" lengthAdjust="spacing" textLength="22.9785" x="328.16" y="483.8169">has</text><text fill="#000000" font-family="sans-serif" font-size="13" lengthAdjust="spacing" textLength="8.271" x="341.362" y="460.8104">1</text><text fill="#000000" font-family="sans-serif" font-size="13" lengthAdjust="spacing" textLength="23.0356" x="253.3259" y="540.1926">0..*</text></g><!--link Employee to EmployeeDivision--><g class="link" data-entity-1="Employee" data-entity-2="EmployeeDivision" data-source-line="80" data-uid="lnk11" id="link_Employee_EmployeeDivision"><path codeLine="80" d="M480.08,441.12 C510.05,494.87 545.71,558.82 568.14,599.05" fill="none" id="Employee-EmployeeDivision" style="stroke:#181818;stroke-width:1;"/><text fill="#000000" font-family="sans-serif" font-size="13" lengthAdjust="spacing" textLength="68.2627" x="505.16" y="483.8169">belongs to</text><text fill="#000000" font-family="sans-serif" font-size="13" lengthAdjust="spacing" textLength="8.271" x="475.7563" y="460.9177">1</text><text fill="#000000" font-family="sans-serif" font-size="13" lengthAdjust="spacing" textLength="23.0356" x="539.5926" y="588.1817">1..*</text></g><!--link Employee to EmployeeJobTitle--><g class="link" data-entity-1="Employee" data-entity-2="EmployeeJobTitle" data-source-line="81" data-uid="lnk12" id="link_Employee_EmployeeJobTitle"><path codeLine="81" d="M413,441.12 C405.69,494.87 397,558.82 391.52,599.05" fill="none" id="Employee-EmployeeJobTitle" style="stroke:#181818;stroke-width:1;"/><text fill="#000000" font-family="sans-serif" font-size="13" lengthAdjust="spacing" textLength="22.9785" x="410.16" y="483.8169">has</text><text fill="#000000" font-family="sans-serif" font-size="13" lengthAdjust="spacing" textLength="8.271" x="403.7502" y="460.9177">1</text><text fill="#000000" font-family="sans-serif" font-size="13" lengthAdjust="spacing" textLength="23.0356" x="367.5067" y="588.1817">1..*</text></g><!--link Division to EmployeeDivision--><g class="link" data-entity-1="Division" data-entity-2="EmployeeDivision" data-source-line="82" data-uid="lnk13" id="link_Division_EmployeeDivision"><path codeLine="82" d="M620.36,441.12 C612.14,494.87 602.35,558.82 596.2,599.05" fill="none" id="Division-EmployeeDivision" style="stroke:#181818;stroke-width:1;"/><text fill="#000000" font-family="sans-serif" font-size="13" lengthAdjust="spacing" textLength="55.0278" x="617.16" y="483.8169">contains</text><text fill="#000000" font-family="sans-serif" font-size="13" lengthAdjust="spacing" textLength="8.271" x="610.99" y="460.9177">1</text><text fill="#000000" font-family="sans-serif" font-size="13" lengthAdjust="spacing" textLength="23.0356" x="572.3" y="588.1817">0..*</text></g><!--link JobTitle to EmployeeJobTitle--><g class="link" data-entity-1="JobTitle" data-entity-2="EmployeeJobTitle" data-source-line="83" data-uid="lnk14" id="link_JobTitle_EmployeeJobTitle"><path codeLine="83" d="M228.86,392.19 C228.68,421.04 231.77,457.88 245.16,487.75 C256.55,513.18 306.12,563.35 343.29,598.82" fill="none" id="JobTitle-EmployeeJobTitle" style="stroke:#181818;stroke-width:1;"/><text fill="#000000" font-family="sans-serif" font-size="13" lengthAdjust="spacing" textLength="62.1499" x="246.16" y="483.8169">describes</text><text fill="#000000" font-family="sans-serif" font-size="13" lengthAdjust="spacing" textLength="8.271" x="219.8976" y="411.8277">1</text><text fill="#000000" font-family="sans-serif" font-size="13" lengthAdjust="spacing" textLength="23.0356" x="311.6283" y="588.2145">0..*</text></g><!--link EmployeeService to Employee--><g class="link" data-entity-1="EmployeeService" data-entity-2="Employee" data-source-line="85" data-uid="lnk15" id="link_EmployeeService_Employee"><path codeLine="85" d="M628.05,161.11 C609.65,179.47 589.5,198.87 570.16,216.08 C554.08,230.38 548.57,232.16 532.16,246.08 C526.46,250.9 525.1659,251.9595 519.3359,257.0595" fill="none" id="EmployeeService-to-Employee" style="stroke:#181818;stroke-width:1;"/><polygon fill="#181818" points="514.82,261.01,524.2276,258.0949,518.5833,257.7179,518.9603,252.0737,514.82,261.01" style="stroke:#181818;stroke-width:1;"/><text fill="#000000" font-family="sans-serif" font-size="13" lengthAdjust="spacing" textLength="59.8584" x="590.16" y="212.1469">manages</text></g><!--link ReportGenerator to Employee--><g class="link" data-entity-1="ReportGenerator" data-entity-2="Employee" data-source-line="86" data-uid="lnk16" id="link_ReportGenerator_Employee"><path codeLine="86" d="M293.8,169.55 C312.33,193.75 329.2126,215.796 348.4526,240.926" fill="none" id="ReportGenerator-to-Employee" style="stroke:#181818;stroke-width:1;"/><polygon fill="#181818" points="352.1,245.69,349.8049,236.1123,349.0605,241.72,343.4528,240.9756,352.1,245.69" style="stroke:#181818;stroke-width:1;"/><text fill="#000000" font-family="sans-serif" font-size="13" lengthAdjust="spacing" textLength="29.7832" x="330.16" y="212.1469">uses</text></g><!--link ReportGenerator to Payroll--><g class="link" data-entity-1="ReportGenerator" data-entity-2="Payroll" data-source-line="87" data-uid="lnk17" id="link_ReportGenerator_Payroll"><path codeLine="87" d="M155.58,169.56 C138.27,192.57 122.31,218.84 113.16,246.08 C83.78,333.47 88.2058,432.1326 99.7358,511.3526" fill="none" id="ReportGenerator-to-Payroll" style="stroke:#181818;stroke-width:1;"/><polygon fill="#181818" points="100.6,517.29,103.2621,507.8077,99.8799,512.3421,95.3455,508.9599,100.6,517.29" style="stroke:#181818;stroke-width:1;"/><text fill="#000000" font-family="sans-serif" font-size="13" lengthAdjust="spacing" textLength="29.7832" x="114.16" y="347.9769">uses</text></g><!--link ReportGenerator to Division--><g class="link" data-entity-1="ReportGenerator" data-entity-2="Division" data-source-line="88" data-uid="lnk18" id="link_ReportGenerator_Division"><path codeLine="88" d="M405.05,169.4 C447.93,192.04 492.84,218.18 532.16,246.08 C538.05,250.26 539.2711,250.994 545.1011,255.674" fill="none" id="ReportGenerator-to-Division" style="stroke:#181818;stroke-width:1;"/><polygon fill="#181818" points="549.78,259.43,545.2656,250.6767,545.8809,256.3,540.2576,256.9153,549.78,259.43" style="stroke:#181818;stroke-width:1;"/><text fill="#000000" font-family="sans-serif" font-size="13" lengthAdjust="spacing" textLength="29.7832" x="487.16" y="212.1469">uses</text></g><!--link ReportGenerator to JobTitle--><g class="link" data-entity-1="ReportGenerator" data-entity-2="JobTitle" data-source-line="89" data-uid="lnk19" id="link_ReportGenerator_JobTitle"><path codeLine="89" d="M232.16,169.55 C232.16,210.71 232.16,253.39 232.16,288.59" fill="none" id="ReportGenerator-to-JobTitle" style="stroke:#181818;stroke-width:1;"/><polygon fill="#181818" points="232.16,294.59,236.16,285.59,232.16,289.59,228.16,285.59,232.16,294.59" style="stroke:#181818;stroke-width:1;"/><text fill="#000000" font-family="sans-serif" font-size="13" lengthAdjust="spacing" textLength="29.7832" x="233.16" y="212.1469">uses</text></g><!--SRC=[ZLN1Rjim3BtxAuHSwcn9qGmx1KCkJRjcI8DXsTrWR3RH9ak691SpXltxQDboR3b1UmcWnqUAV8zoRjY3jDnMx5w0CMXOl0OB1p38dbM6maoZj8wmXxmGga9aVoF6vWppWcTBngLrnqS9EIxPtcekZmxPZX3CWOi1yiGrqdL4gtyTj0S1kbgo35EUWsYm_QwNzf4TqJwMGkpeWdWQHZRoHVNGVr7R_vg_SiELRFlVhC_Dxy9EKn9a042MQJHcooKkhWK-3GB6khdwHLKfhHxMBHJnn3q97OwnHajgcKkJV5E7dzmAxyGlTKXiVKxwXdHeMDYbNYhx7IgjX6Yh5b3r9Q9ZaWsTGj2I2fYXLo-O9HR-ZC4Sip6utmynfzeuNwEbJKa-tor-3mCd165FIGeQXu71UhgvTsXfmdhmCwyHH945QypArD9wc3wZqyOlVx14mIF8-6lYHHkb1gu5gMCJgS0DswD-vIcoBLIeWu8-rjLpADcnvSP-yQoL6zEGMUafjgXpR_oCsQhejeE6zXakeIngj-DpbpD602pPCnJ4FIWb4AIZqXEW1ng7Q568QYDJZVGfYOlKagggF0YSiPpBJc8wzSoU3XmZkvve5AMhNXzJrqAZpWyibBRiAqhKGBnMe0Rkq7S8vFQxNduVRD_2ojlgJFT1lmGhxvpprKUzputmGI_9jPaQtiKKLwrUtLn9UshDgCZGT-JwLj_ARUKKu9x0YHScwhxtayM4pUTiSdTx-s7IVIMMx0GNI0j76ZqNsWqKYZuMpAgtahg7qbpHrHZsSU6Ab6O4BatKLRYSqhiWGvDgVa0JHU6pcizNv_-y9QsfX2FnmkKAQAMvmZdhTfNI6-KgfzTxpVaF]--></g></svg>